<?xml version="1.0" encoding="utf-8"?>
<!-- Generator: Adobe Illustrator 16.0.0, SVG Export Plug-In . SVG Version: 6.00 Build 0)  -->
<!DOCTYPE svg PUBLIC "-//W3C//DTD SVG 1.1//EN" "http://www.w3.org/Graphics/SVG/1.1/DTD/svg11.dtd">
<svg version="1.1" id="Layer_1" xmlns="http://www.w3.org/2000/svg" xmlns:xlink="http://www.w3.org/1999/xlink" x="0px" y="0px"
	 width="100px" height="100px" viewBox="0 0 100 100" enable-background="new 0 0 100 100" xml:space="preserve">
<g>
	<path d="M21.323,25.163v-1.745h21.06v1.745c-3.44,0.429-5.617,1.072-6.528,1.928c-1.053,1.102-1.58,3.489-1.58,7.163v20.018h27.377
		V34.254c0-3.733-0.526-6.152-1.579-7.254c-0.843-0.856-2.914-1.469-6.213-1.836v-1.745h21.376v1.745
		c-3.301,0.429-5.335,1.072-6.107,1.928c-1.053,1.102-1.579,3.489-1.579,7.163v44.719c0,3.672,0.526,6.213,1.579,7.621
		c0.911,1.346,2.948,2.203,6.107,2.57v1.838H53.859v-1.838c3.649-0.367,6.003-1.684,7.056-3.947c0.49-1.162,0.736-3.674,0.736-7.53
		V57.577H34.274v21.396c0,3.612,0.526,6.152,1.58,7.621c1.122,1.346,3.299,2.203,6.528,2.57v1.838h-21.06v-1.838
		c3.228-0.307,5.265-1.285,6.107-2.938c0.631-1.225,0.948-4.07,0.948-8.54V34.254c0-3.428-0.247-5.51-0.737-6.244"/>
</g>
<rect x="14.755" y="16.479" fill="none" width="52.775" height="79.954"/>
</svg>
