<?xml version="1.0" encoding="utf-8"?>
<!-- Generator: Adobe Illustrator 16.0.0, SVG Export Plug-In . SVG Version: 6.00 Build 0)  -->
<!DOCTYPE svg PUBLIC "-//W3C//DTD SVG 1.1//EN" "http://www.w3.org/Graphics/SVG/1.1/DTD/svg11.dtd">
<svg version="1.1" id="Layer_1" xmlns="http://www.w3.org/2000/svg" xmlns:xlink="http://www.w3.org/1999/xlink" x="0px" y="0px"
	 width="200px" height="100px" viewBox="0 0 200 100" style="enable-background:new 0 0 200 100;" xml:space="preserve">
<style type="text/css">
<![CDATA[
	.st0{fill:none;stroke:#231F20;stroke-miterlimit:10;}
]]>
</style>
<path class="st0" d="M29.939,0"/>
<path class="st0" d="M51.338,0"/>
<path class="st0" d="M38.581,0c0,0-11.796,30.577,21.674,36.613c0,0,25.103-1.508,16.872,13.032c0,0-20.987,41.016,26.475,36.763"/>
<path class="st0" d="M39.343,0c0,0-8.824,27.757,21.095,35.439c0,0,20.133,2.561,14.342,17.085c0,0-18.015,37.557,24.189,34.264"/>
<path class="st0" d="M40.105,0c0,0-5.852,24.938,20.516,34.266c0,0,15.165,6.63,11.812,21.14c0,0-15.043,34.096,21.903,31.764"/>
<path class="st0" d="M40.867,0c0,0-2.88,22.118,19.937,33.092c0,0,10.196,10.7,9.282,25.194c0,0-12.071,30.636,19.616,29.264"/>
<path class="st0" d="M41.63,0c0,0,0.092,19.298,19.357,31.918c0,0,5.228,14.77,6.751,29.249c0,0-9.099,27.175,17.33,26.764"/>
<path class="st0" d="M42.392,0c0,0,3.064,16.479,18.778,30.744c0,0,0.259,18.839,4.222,33.303c0,0-6.127,23.716,15.043,24.265"/>
<path class="st0" d="M43.154,0c0,0,6.036,13.659,18.198,29.57c0,0-4.71,22.908,1.692,37.357c0,0-3.155,20.256,12.757,21.765"/>
<path class="st0" d="M43.916,0c0,0,9.008,10.838,17.62,28.396c0,0-9.678,26.978-0.838,41.412c0,0-0.183,16.796,10.471,19.265"/>
<path class="st0" d="M44.678,0c0,0,11.98,8.019,17.04,27.223c0,0-14.647,31.047-3.368,45.465c0,0,2.789,13.336,8.185,16.766"/>
<path class="st0" d="M45.44,0c0,0,14.952,5.199,16.461,26.049c0,0-19.616,35.117-5.898,49.52c0,0,5.761,9.876,5.898,14.266"/>
</svg>
